<svg width="64" height="64" viewBox="0 0 64 64" fill="none" xmlns="http://www.w3.org/2000/svg">
<path d="M27.2 23H33.5V26.7C33.5 27.4 34 27.9 34.7 27.9H36.8C35.7 29.3 34.5 31.1 34.5 32.5C34.5 35.1 36.7 37.3 39.3 37.3C41.9 37.3 44.1 35.1 44.1 32.5C44.1 31.1 42.9 29.3 41.8 27.9H43.9C44.6 27.9 45.1 27.4 45.1 26.7V23H51.4C53.6 23 55.5 21.2 55.5 18.9V2.49999C55.5 1.79999 55 1.29999 54.3 1.29999H44.5C43.8 1.29999 43.3 1.79999 43.3 2.49999C43.3 3.19999 43.8 3.69999 44.5 3.69999H53.1V18.9C53.1 19.8 52.4 20.6 51.4 20.6H27.2C26.3 20.6 25.5 19.9 25.5 18.9V3.69999H33.7C34.4 3.69999 34.9 3.19999 34.9 2.49999C34.9 1.79999 34.4 1.29999 33.7 1.29999H24.3C23.6 1.29999 23.1 1.79999 23.1 2.49999V18.9C23.1 21.2 24.9 23 27.2 23ZM39.3 34.9C38 34.9 36.9 33.8 36.9 32.5C36.9 31.8 38 30.1 39.3 28.6C40.6 30.1 41.7 31.8 41.7 32.5C41.7 33.8 40.6 34.9 39.3 34.9ZM42.7 23V25.5H35.9V23H42.7Z" fill="#035755"/>
<path d="M38 2.99999C38.2 3.49999 38.7 3.79999 39.2 3.69999C39.7 3.69999 40.1 3.29999 40.3 2.79999C40.4 2.29999 40.3 1.79999 39.9 1.49999C39.5 1.19999 39 1.19999 38.6 1.49999C38 1.79999 37.8 2.39999 38 2.99999Z" fill="#035755"/>
<path d="M61 44.5C60.5 43.4 59.5 42.5 58.3 42.1C57.8 42 57.4 41.9 56.9 41.9C56.8 41.8 56.8 41.6 56.7 41.5C56.1 40.4 55.1 39.6 53.9 39.3C52.7 39 51.5 39.1 50.4 39.7L49.6 40.1C49 39.1 48.1 38.4 47 38C45.8 37.7 44.6 37.8 43.5 38.4L39 41C38.8 41 38.6 40.9 38.3 40.9L28 40.2C24.7 40 21.4 40.4 18.3 41.4H18.2L3.3 47.4C2.8 47.6 2.5 48 2.5 48.5V60.2C2.5 60.6 2.7 60.9 3 61.2C3.3 61.4 3.7 61.5 4 61.4L14.9 58.4L27.7 62C29.4 62.5 31.2 62.7 33 62.7C36.5 62.7 40 61.8 43.1 59.9L59.2 50.2C61.2 49 62 46.6 61 44.5ZM51.7 41.8C52.2 41.5 52.8 41.4 53.4 41.6C53.9 41.8 54.4 42.1 54.7 42.6L38.8 51.5L32.8 49.8C34.9 49.8 36.9 49.8 38.3 49.8C40.1 49.8 41.7 48.7 42.4 47V46.9C42.4 46.8 42.4 46.8 42.5 46.7L51.7 41.8ZM44.7 40.6C45.2 40.3 45.8 40.2 46.4 40.4C46.9 40.5 47.3 40.9 47.6 41.3L42.6 44C42.5 43.6 42.3 43.2 42 42.8C41.9 42.6 41.7 42.4 41.6 42.3L44.7 40.6ZM58 48.2L41.9 57.9C37.9 60.3 32.9 61 28.4 59.7L15.4 56C15.3 56 15.2 56 15.1 56C15 56 14.9 56 14.8 56L5 58.6V49.3L19 43.7C21.9 42.8 24.8 42.5 27.8 42.6L38.3 43.3C39 43.3 39.6 43.6 40 44.2C40.4 44.8 40.4 45.5 40.2 46.1V46.2C39.9 47 39.1 47.5 38.3 47.5C33.8 47.5 24 47.5 24 47.5C23.4 47.5 22.9 47.9 22.8 48.5C22.7 49.1 23.1 49.7 23.7 49.8L38.7 54C39 54.1 39.3 54 39.6 53.9L56 44.6C56.5 44.3 57.1 44.3 57.6 44.4C58.2 44.6 58.6 45 58.8 45.5C59.3 46.5 58.9 47.6 58 48.2Z" fill="#035755"/>
<path d="M33.3 9.69998V14.5C33.3 15.2 33.8 15.7 34.5 15.7H35.7V16.9C35.7 17.6 36.2 18.1 36.9 18.1H41.7C42.4 18.1 42.9 17.6 42.9 16.9V15.7H44.1C44.8 15.7 45.3 15.2 45.3 14.5V9.69998C45.3 8.99998 44.8 8.49998 44.1 8.49998H42.9V7.39998C42.9 6.69998 42.4 6.19998 41.7 6.19998H36.9C36.2 6.19998 35.7 6.69998 35.7 7.39998V8.59998H34.5C33.9 8.49998 33.3 9.09998 33.3 9.69998ZM35.7 10.9H36.9C37.6 10.9 38.1 10.4 38.1 9.69998V8.59998H40.5V9.79998C40.5 10.5 41 11 41.7 11H42.9V13.4H41.7C41 13.4 40.5 13.9 40.5 14.6V15.8H38.1V14.6C38.1 13.9 37.6 13.4 36.9 13.4H35.7V10.9Z" fill="#035755"/>
</svg>
