<svg width="64" height="64" viewBox="0 0 64 64" fill="none" xmlns="http://www.w3.org/2000/svg">
<path d="M5.33333 54.4H7.46666C8.05333 54.4 8.53333 53.92 8.53333 53.3333C8.53333 52.7467 8.05333 52.2667 7.46666 52.2667H5.33333C4.74666 52.2667 4.26666 52.7467 4.26666 53.3333C4.26666 53.92 4.74666 54.4 5.33333 54.4Z" fill="#035755"/>
<path d="M56.5333 54.4H58.6667C59.2533 54.4 59.7333 53.92 59.7333 53.3333C59.7333 52.7467 59.2533 52.2667 58.6667 52.2667H56.5333C55.9467 52.2667 55.4667 52.7467 55.4667 53.3333C55.4667 53.92 55.9467 54.4 56.5333 54.4Z" fill="#035755"/>
<path d="M5.33333 60.8H7.46666C8.05333 60.8 8.53333 60.32 8.53333 59.7333C8.53333 59.1467 8.05333 58.6667 7.46666 58.6667H5.33333C4.74666 58.6667 4.26666 59.1467 4.26666 59.7333C4.26666 60.32 4.74666 60.8 5.33333 60.8Z" fill="#035755"/>
<path d="M30.9333 54.4H33.0667C33.6533 54.4 34.1333 53.92 34.1333 53.3333C34.1333 52.7467 33.6533 52.2667 33.0667 52.2667H30.9333C30.3467 52.2667 29.8667 52.7467 29.8667 53.3333C29.8667 53.92 30.3467 54.4 30.9333 54.4Z" fill="#035755"/>
<path d="M30.9333 60.8H33.0667C33.6533 60.8 34.1333 60.32 34.1333 59.7333C34.1333 59.1467 33.6533 58.6667 33.0667 58.6667H30.9333C30.3467 58.6667 29.8667 59.1467 29.8667 59.7333C29.8667 60.32 30.3467 60.8 30.9333 60.8Z" fill="#035755"/>
<path d="M56.5333 60.8H58.6667C59.2533 60.8 59.7333 60.32 59.7333 59.7333C59.7333 59.1467 59.2533 58.6667 58.6667 58.6667H56.5333C55.9467 58.6667 55.4667 59.1467 55.4667 59.7333C55.4667 60.32 55.9467 60.8 56.5333 60.8Z" fill="#035755"/>
<path d="M17.5467 33.1333C17.3333 32.5867 16.72 32.3067 16.16 32.5333L14.1733 33.3067C13.6267 33.52 13.3467 34.1333 13.5733 34.6933C13.7867 35.24 14.4 35.52 14.96 35.2933L16.9467 34.52C17.4933 34.2933 17.76 33.68 17.5467 33.1333Z" fill="#035755"/>
<path d="M62.64 25.6133C62.92 22.9733 61.12 20.56 58.5067 20.08C55.76 15.8933 50.1333 14.7333 45.96 17.4933C44.9333 18.1733 44.0533 19.0533 43.3733 20.08C42.7733 20.1867 42.2 20.4 41.68 20.72L45.8133 9.98667C46.0267 9.44 45.7467 8.81333 45.2 8.61333C45.1867 8.61333 45.1733 8.6 45.16 8.6L41.96 7.53333C41.4133 7.34667 40.8267 7.62667 40.6267 8.16L39.4667 11.1067V1.06667C39.4667 0.48 38.9867 0 38.4 0H34.1333C33.5467 0 33.0667 0.48 33.0667 1.06667V11.1067L31.9333 8.14667C31.7333 7.61333 31.1467 7.33333 30.6 7.52L27.4 8.58667C26.84 8.77333 26.5333 9.37333 26.72 9.93333C26.72 9.94667 26.7333 9.96 26.7333 9.97333L31.3067 21.8533C31.76 23.04 32 24.3067 32 25.5867V26.7867C31.64 26.92 31.3067 27.08 30.9733 27.28L30.6133 26.56C29.6667 24.6533 27.7333 23.4533 25.6 23.4667H23.0667C22.48 23.4667 22 23.9467 22 24.5333C22 24.6933 22.04 24.8667 22.1067 25.0133L22.9867 26.7733C23.9333 28.68 25.8667 29.88 28 29.8667H28.2933C27.8933 30.5067 27.6 31.2 27.4133 31.92C25.7733 30.2667 23.1067 30.24 21.4533 31.8667C21.3333 31.9867 21.2267 32.1067 21.12 32.24L20.8667 32.5467C20.6133 32.8533 20.4 33.1867 20.2 33.52L19.2533 30.24C18.8 28.6933 17.8267 27.36 16.5067 26.4533C18.4267 25.0133 19.1467 22.48 18.2667 20.2533C17.3733 18.0133 15.1067 16.64 12.7067 16.8933C10 14.6 5.96 14.92 3.66667 17.6C2.84 18.56 2.33333 19.7467 2.17333 21C0.24 22.44 -0.506667 24.9867 0.36 27.24C1.22667 29.48 3.48 30.8533 5.86667 30.6133C5.50667 32.1867 5.69333 33.8267 6.41333 35.2667L10.1067 42.6667H1.06667C0.48 42.6667 0 43.1467 0 43.7333V62.9333C0 63.52 0.48 64 1.06667 64H62.9333C63.52 64 64 63.52 64 62.9333V43.7333C64 43.1467 63.52 42.6667 62.9333 42.6667H56.2533C56.3733 41.92 56.6267 41.1867 56.9867 40.52C57.0933 40.52 57.2133 40.5333 57.3333 40.5333C60.8667 40.5333 63.7333 37.6667 63.7333 34.1333C63.7333 33.3067 63.5733 32.48 63.2533 31.7067C64.44 29.76 64.1867 27.2667 62.64 25.6133ZM51.0133 40.88C50.8533 40.1333 50.6 39.4 50.2533 38.7067C50.48 38.6 50.7067 38.48 50.92 38.3467C51.1867 38.5067 51.4533 38.64 51.7333 38.7733C51.4133 39.44 51.1733 40.1467 51.0133 40.88ZM48.2 39.3733C48.7733 40.3733 49.0667 41.5067 49.0667 42.6667H47.9333C47.8133 41.7333 47.56 40.8267 47.1467 39.9733C47.52 39.8133 47.8667 39.6133 48.2 39.3733ZM45.04 40.52C45.4133 41.1867 45.6667 41.92 45.7867 42.6667H42.6133C42.4533 41.9333 42.1467 41.2533 41.7067 40.6667L40.5733 39.1467C41.7067 40.0533 43.1067 40.5333 44.5467 40.5333C44.7067 40.5333 44.8667 40.5333 45.04 40.52ZM36.12 41.8C37.4667 39.64 37.7067 36.96 36.76 34.6L38.24 30.96C38.3467 31.2133 38.4667 31.4667 38.6133 31.7067C38.0533 33.0533 37.9867 34.56 38.4 35.96V39.4667C38.4 39.6933 38.48 39.92 38.6133 40.1067L39.9867 41.9467C40.1467 42.1733 40.2933 42.4133 40.3867 42.6667H35.5733L36.12 41.8ZM42.2267 9.86667L43.4 10.2533L39.2267 21.0933C38.7733 22.28 38.4933 23.5467 38.4133 24.8133L35.3733 32.3067L35.32 32.24C34.9867 31.8267 34.5867 31.48 34.12 31.2133V29.6L42.2267 9.86667ZM35.2 16.5333V2.13333H37.3333V16.24C37.3333 16.3467 37.3467 16.44 37.3733 16.5333L36.2667 19.4267L35.2 16.64C35.2 16.6 35.2 16.5733 35.2 16.5333ZM29.1333 10.2533L30.3067 9.86667L34.6533 21.16C34.8267 21.6 34.9467 22.0533 35.04 22.52L34.0933 24.5867C34 23.3867 33.7333 22.2133 33.3067 21.0933L29.1333 10.2533ZM32 29.3867V30.6667C31.2933 30.6667 30.6 30.8533 29.9733 31.2C30.4533 30.3467 31.1467 29.64 32 29.16V29.3867ZM24.9067 25.8133L24.8 25.6H25.6C26.92 25.6 28.12 26.3333 28.7067 27.52L28.8133 27.7333H28.0133C26.6933 27.7333 25.48 27 24.9067 25.8133ZM22.52 33.8933L22.7733 33.5867C23.4933 32.6933 24.8 32.5467 25.7067 33.2667C25.88 33.4 26.0133 33.56 26.1333 33.7333C26.9067 34.88 28.4533 35.2 29.6133 34.4267C29.8933 34.24 30.12 34.0133 30.3067 33.7333C30.8267 32.9467 31.8267 32.6133 32.72 32.92C32.72 32.92 32.7333 32.92 32.7333 32.9333C33.0933 33.0667 33.4133 33.2933 33.6533 33.6L33.9067 33.9067C35.4667 35.8533 35.6133 38.5733 34.3067 40.68L33.0533 42.68H23.3733L22.12 40.68C20.8133 38.56 20.9733 35.84 22.52 33.8933ZM19.12 37.1467C19.12 37.1333 19.12 37.1333 19.1067 37.12L19.12 37.1467ZM2.36 26.4667C1.78667 25 2.37333 23.3333 3.73333 22.5333C4.05333 22.3467 4.25333 22.0133 4.26667 21.64C4.33333 19.28 6.30667 17.4267 8.65333 17.4933C9.76 17.52 10.8133 17.9867 11.5867 18.7733C11.84 19.04 12.2267 19.1467 12.5867 19.0667C14.1333 18.7333 15.68 19.56 16.2667 21.0267C16.9067 22.6667 16.1067 24.52 14.4667 25.16C14.24 25.2533 13.9867 25.32 13.7467 25.3467C13.7067 25.3467 13.6667 25.3333 13.64 25.3333C13.8667 24.28 14.36 23.3067 15.08 22.52C15.48 22.08 15.4533 21.4133 15.0133 21.0133C14.5733 20.6133 13.9067 20.64 13.5067 21.08L13.4933 21.0933C12.4933 22.2133 11.8 23.5867 11.52 25.0533C11.3467 25.0667 11.1867 25.12 11.04 25.2133L9.53333 21.36C9.32 20.8133 8.70667 20.5333 8.14667 20.76C7.6 20.9733 7.32 21.5867 7.54667 22.1467L9.04 26C8.86667 26.0267 8.70667 26.0933 8.57333 26.2C7.36 25.3067 5.93333 24.76 4.44 24.6267C3.85333 24.5733 3.33333 25 3.28 25.5867C3.22667 26.1733 3.65333 26.6933 4.24 26.7467C5.30667 26.8533 6.33333 27.2267 7.2 27.84C7.17333 27.8667 7.16 27.9067 7.13333 27.9333C5.68 28.9333 3.69333 28.5733 2.69333 27.12C2.56 26.92 2.44 26.6933 2.36 26.4667ZM11.72 41.1333L13.52 40.4267C14.0667 40.2133 14.3467 39.6 14.1333 39.0533C13.92 38.5067 13.3067 38.2267 12.76 38.44C12.76 38.44 12.76 38.44 12.7467 38.44L10.76 39.2133L9.8 37.2933L10.9733 36.84C11.52 36.6267 11.8 36.0133 11.5733 35.4533C11.3467 34.8933 10.7467 34.6267 10.1867 34.8533L8.84 35.3867L8.30667 34.32C7.70667 33.12 7.64 31.72 8.12 30.4667C8.25333 30.12 8.42667 29.8 8.62667 29.4933C9.02667 29.1733 9.37333 28.8133 9.66667 28.4C10.0267 28.1333 10.4133 27.9067 10.84 27.7467C11.2533 27.5867 11.6933 27.48 12.1467 27.44C12.64 27.5467 13.1467 27.5867 13.6533 27.5467C14.0133 27.6267 14.36 27.76 14.6933 27.92C15.9067 28.5067 16.8 29.5867 17.1733 30.88L18.8667 36.7467C18.88 36.7733 18.88 36.7867 18.8933 36.8133C18.6 36.48 18.12 36.36 17.7067 36.52L16.7067 36.9067C16.16 37.12 15.88 37.7333 16.1067 38.2933C16.32 38.84 16.9333 39.12 17.4933 38.8933L18.4933 38.5067C18.7867 38.4 19 38.16 19.1067 37.8667C19.16 39.2667 19.5733 40.6267 20.32 41.8133L20.8667 42.68H12.4933L11.72 41.1333ZM61.8667 55.4667H2.13333V51.2H61.8667V55.4667ZM61.8667 61.8667H2.13333V57.6H61.8667V61.8667ZM61.8667 49.0667H2.13333V44.8H61.8667V49.0667ZM54.0933 42.6667H52.96C52.96 41.5467 53.24 40.44 53.7867 39.4667C54.12 39.6933 54.48 39.88 54.8533 40.04C54.4667 40.8667 54.2133 41.76 54.0933 42.6667ZM61.2 30.92C60.92 31.2533 60.88 31.72 61.08 32.1067C62.2 34.1867 61.4267 36.7733 59.3467 37.8933C58.72 38.2267 58.0267 38.4 57.32 38.4C56.3733 38.4 55.4533 38.08 54.7067 37.5067C54.56 37.3867 54.3733 37.32 54.1867 37.2933C53.24 37.1733 52.3333 36.8 51.56 36.2267C51.1867 35.9467 50.6533 35.9467 50.28 36.2267C49.5067 36.8 48.6133 37.1733 47.6533 37.2933C47.4667 37.32 47.28 37.3867 47.1333 37.5067C46.3867 38.0933 45.4667 38.4133 44.52 38.4C42.16 38.4 40.2533 36.4933 40.2533 34.1333C40.2533 33.4267 40.4267 32.7333 40.76 32.1067C40.96 31.72 40.92 31.2533 40.64 30.92C39.8667 29.9733 39.76 28.64 40.3733 27.5867C40.5467 27.2933 40.76 27.04 41.0267 26.8133C41.3333 26.56 41.48 26.1467 41.3867 25.7467C41.0133 24.1733 41.9867 22.5867 43.56 22.2133C43.72 22.1733 43.88 22.1467 44.04 22.1333C44.4 22.1067 44.72 21.9067 44.8933 21.6C46.8 18.28 51.04 17.1333 54.36 19.04C55.4267 19.6533 56.3067 20.5333 56.92 21.6C57.0933 21.9067 57.4133 22.1067 57.7733 22.1333C59.3867 22.24 60.6133 23.64 60.5067 25.2533C60.4933 25.4133 60.4667 25.5733 60.4267 25.7333C60.3333 26.1333 60.4667 26.5333 60.7867 26.8C61.4533 27.36 61.84 28.1867 61.84 29.0533C61.8667 29.7467 61.64 30.4 61.2 30.92Z" fill="#035755"/>
<path d="M50.9333 20.2667C49.12 20.2667 47.52 21.4133 46.9067 23.1067C46.7067 23.6667 47 24.2667 47.56 24.4667C48.12 24.6667 48.72 24.3733 48.92 23.8133C49.32 22.7067 50.5333 22.12 51.64 22.52C52.2533 22.7333 52.72 23.2133 52.9333 23.8133C53.1333 24.3733 53.7333 24.6533 54.2933 24.4667C54.8533 24.2667 55.1333 23.6667 54.9467 23.1067C54.3467 21.4133 52.7467 20.2667 50.9333 20.2667Z" fill="#035755"/>
<path d="M45.6 27.7333C46.1867 27.7333 46.6667 27.2533 46.6667 26.6667C46.6667 26.08 46.1867 25.6 45.6 25.6C43.8267 25.6 42.4 27.0267 42.4 28.8C42.4 30.5733 43.8267 32 45.6 32C46.1867 32 46.6667 31.52 46.6667 30.9333C46.6667 30.3467 46.1867 29.8667 45.6 29.8667C45.0133 29.8667 44.5333 29.3867 44.5333 28.8C44.5333 28.2133 45.0133 27.7333 45.6 27.7333Z" fill="#035755"/>
<path d="M7.46666 45.8667H5.33333C4.74666 45.8667 4.26666 46.3467 4.26666 46.9333C4.26666 47.52 4.74666 48 5.33333 48H7.46666C8.05333 48 8.53333 47.52 8.53333 46.9333C8.53333 46.3467 8.05333 45.8667 7.46666 45.8667Z" fill="#035755"/>
<path d="M56.5333 48H58.6667C59.2533 48 59.7333 47.52 59.7333 46.9333C59.7333 46.3467 59.2533 45.8667 58.6667 45.8667H56.5333C55.9467 45.8667 55.4667 46.3467 55.4667 46.9333C55.4667 47.52 55.9467 48 56.5333 48Z" fill="#035755"/>
<path d="M33.0667 45.8667H30.9333C30.3467 45.8667 29.8667 46.3467 29.8667 46.9333C29.8667 47.52 30.3467 48 30.9333 48H33.0667C33.6533 48 34.1333 47.52 34.1333 46.9333C34.1333 46.3467 33.6533 45.8667 33.0667 45.8667Z" fill="#035755"/>
<path d="M25.1467 40.5333C25.7333 40.5333 26.2133 40.0533 26.2133 39.4667C26.2133 39.1867 26.1067 38.9067 25.9067 38.7067C25.6 38.4 25.52 37.92 25.72 37.52L26.1067 36.7333C26.36 36.2 26.1467 35.56 25.6133 35.3067C25.0933 35.0533 24.4533 35.2667 24.2 35.7733L23.8133 36.56C23.2 37.7733 23.44 39.24 24.4 40.2133C24.5867 40.4267 24.8667 40.5333 25.1467 40.5333Z" fill="#035755"/>
</svg>
