<svg width="64" height="64" viewBox="0 0 64 64" fill="none" xmlns="http://www.w3.org/2000/svg">
<path d="M63.809 33.6644L60.6338 18.1258C59.3587 12.2378 54.1458 8.025 48.1203 8H16.9555C10.93 8.025 5.72961 12.2378 4.44201 18.1258L0.316702 37.4022C0.316702 37.4272 0.316702 37.4522 0.316702 37.4772C-0.63337 42.1026 0.579222 46.9029 3.61695 50.5032C6.65468 54.1035 11.1675 56.1411 15.8804 56.0036H58.1336C59.7837 56.0036 61.3713 55.3036 62.4839 54.0785C63.5965 52.8534 64.134 51.2158 63.9715 49.5656C63.684 47.0904 61.8838 45.0528 59.4587 44.4653C62.9089 42.0526 64.6091 37.8273 63.7965 33.7019C63.809 33.6894 63.809 33.6769 63.809 33.6644ZM6.52967 18.5633C7.59225 13.6504 11.9301 10.1502 16.9555 10.1252H48.1203C53.1457 10.1377 57.471 13.6504 58.5461 18.5508L60.4337 27.7765C58.4836 26.0264 55.9584 25.0513 53.3457 25.0513H15.4678C11.23 25.0388 7.17972 26.7764 4.267 29.8641C4.19199 29.9392 4.12949 30.0267 4.05448 30.1017L6.52967 18.5633ZM53.3457 44.2652H15.4678C14.4178 44.2652 13.4052 43.8152 12.7051 43.0401C11.9926 42.2526 11.6551 41.215 11.7551 40.1649C12.0176 38.2148 13.7177 36.7647 15.6804 36.8022H53.3332C53.9207 36.8022 54.3958 36.3271 54.3958 35.7396C54.3958 35.152 53.9207 34.677 53.3332 34.677H15.6804C12.6176 34.6395 10.0049 36.9147 9.6299 39.9649C9.46739 41.615 10.0049 43.2527 11.1175 44.4778C12.2301 45.7028 13.8052 46.4029 15.4678 46.4029H57.9335C59.9087 46.3654 61.5963 47.8155 61.8588 49.7657C61.9714 50.8157 61.6213 51.8658 60.9088 52.6409C60.1962 53.4159 59.1961 53.866 58.1461 53.866H15.8929C8.66733 53.991 2.62938 48.4156 2.15434 41.2025C1.97933 37.5522 3.29193 33.9895 5.81712 31.3518C8.34231 28.7141 11.8301 27.2014 15.4803 27.2014H53.3457C58.0586 27.2014 61.8838 31.0267 61.8838 35.7396C61.8838 40.4524 58.0586 44.2652 53.3457 44.2652Z" fill="#035755"/>
<path d="M9.44238 20.2759C9.51739 20.2884 9.5924 20.3009 9.6674 20.3009C10.1674 20.3009 10.605 19.9509 10.705 19.4509C11.3425 16.5132 13.9427 14.4005 16.9555 14.4005H25.6061C26.1936 14.4005 26.6687 13.9255 26.6687 13.3379C26.6687 12.7504 26.1936 12.2753 25.6061 12.2753H16.9555C12.9426 12.2878 9.46739 15.1005 8.61732 19.0258C8.55482 19.3009 8.61732 19.5884 8.76733 19.8259C8.91734 20.0509 9.16736 20.2134 9.44238 20.2759Z" fill="#035755"/>
<path d="M29.8689 14.4005C30.4558 14.4005 30.9315 13.9248 30.9315 13.3379C30.9315 12.7511 30.4558 12.2753 29.8689 12.2753C29.2821 12.2753 28.8063 12.7511 28.8063 13.3379C28.8063 13.9248 29.2821 14.4005 29.8689 14.4005Z" fill="#035755"/>
</svg>
