<svg width="64" height="64" viewBox="0 0 64 64" fill="none" xmlns="http://www.w3.org/2000/svg">
<g clip-path="url(#clip0)">
<path d="M62.9773 30.9627H54.1114L63.7 21.3742C64.1 20.9741 64.1 20.316 63.7 19.9159L44.0841 0.300045C43.684 -0.100015 43.0259 -0.100015 42.6258 0.300045L11.9631 30.9627H1.03241C0.464586 30.9627 0 31.4273 0 31.9952V58.8379C0 59.4058 0.464586 59.8703 1.03241 59.8703H16.0928L19.9256 63.7032C20.1321 63.9097 20.3902 64 20.6612 64C20.9322 64 21.1903 63.8968 21.3968 63.7032L25.2296 59.8703H62.9773C63.5451 59.8703 64.0097 59.4058 64.0097 58.8379V31.9952C64.0097 31.4273 63.5451 30.9627 62.9773 30.9627ZM43.3614 2.48102L61.519 20.6386L51.1948 30.9627H43.3098C43.0775 28.3172 41.9289 25.8652 40.0319 23.9681C35.6054 19.5417 28.4043 19.5417 23.9649 23.9681C22.0679 25.8652 20.9322 28.3172 20.687 30.9627H14.8668L43.3614 2.48102ZM27.0751 30.9627C26.9331 30.2917 27.1267 29.569 27.6171 29.0786L29.5012 30.9627H27.0751ZM38.2122 30.9627C38.0961 30.8079 37.9799 30.6659 37.838 30.5369C36.2248 28.9237 33.6051 28.9237 31.9919 30.5369L29.0754 27.6203C29.8497 26.846 31.2176 26.846 31.9919 27.6203L33.4502 26.162C32.6759 25.3877 31.6306 24.9489 30.5337 24.9489C29.4367 24.9489 28.3914 25.3748 27.6171 26.162L26.8815 25.4264L25.4232 26.8847L26.1588 27.6203C25.2554 28.5237 24.8554 29.7626 24.9844 30.9627H22.7776C23.0099 28.8721 23.9262 26.9363 25.4361 25.4264C29.0625 21.8001 34.9601 21.8001 38.5736 25.4264C40.0835 26.9363 40.9997 28.8721 41.232 30.9627H38.2122ZM20.6483 61.5093L19.0093 59.8703H22.2872L20.6483 61.5093ZM61.9449 57.8055H2.06483V33.0276H61.9449V57.8055Z" fill="#035755"/>
<path d="M28.9076 48.5144H26.8428C26.8428 50.7857 28.7011 52.6441 30.9724 52.6441V53.6765H33.0373V52.6441C35.3086 52.6441 37.1669 50.7857 37.1669 48.5144C37.1669 46.2431 35.3086 44.3848 33.0373 44.3848V40.2551C34.1729 40.2551 35.1021 41.1843 35.1021 42.3199H37.1669C37.1669 40.0486 35.3086 38.1903 33.0373 38.1903V37.1579H30.9724V38.1903C28.7011 38.1903 26.8428 40.0486 26.8428 42.3199C26.8428 44.5912 28.7011 46.4496 30.9724 46.4496V50.5793C29.8368 50.5793 28.9076 49.6501 28.9076 48.5144ZM28.9076 42.3199C28.9076 41.1843 29.8368 40.2551 30.9724 40.2551V44.3848C29.8368 44.3848 28.9076 43.4556 28.9076 42.3199ZM33.0373 46.4496C34.1729 46.4496 35.1021 47.3788 35.1021 48.5144C35.1021 49.6501 34.1729 50.5793 33.0373 50.5793V46.4496Z" fill="#035755"/>
<path d="M32.0048 56.7738C38.2639 56.7738 43.3614 51.6762 43.3614 45.4172C43.3614 39.1582 38.2639 34.0606 32.0048 34.0606C25.7458 34.0606 20.6483 39.1582 20.6483 45.4172C20.6483 51.6762 25.7458 56.7738 32.0048 56.7738ZM32.0048 36.1255C37.1282 36.1255 41.2966 40.2938 41.2966 45.4172C41.2966 50.5406 37.1282 54.7089 32.0048 54.7089C26.8815 54.7089 22.7131 50.5406 22.7131 45.4172C22.7131 40.2938 26.8815 36.1255 32.0048 36.1255Z" fill="#035755"/>
<path d="M59.88 54.709V36.1255C59.88 35.5577 59.4154 35.0931 58.8476 35.0931H46.4586V37.1579H57.8152V53.6765H46.4586V55.7414H58.8476C59.4154 55.7414 59.88 55.2768 59.88 54.709Z" fill="#035755"/>
<path d="M5.16208 55.7414H17.5511V53.6765H6.1945V37.1579H17.5511V35.0931H5.16208C4.59426 35.0931 4.12967 35.5577 4.12967 36.1255V54.709C4.12967 55.2768 4.59426 55.7414 5.16208 55.7414Z" fill="#035755"/>
<path d="M46.4586 49.5468H48.5235V51.6117H46.4586V49.5468Z" fill="#035755"/>
<path d="M50.5883 49.5468H52.6531V51.6117H50.5883V49.5468Z" fill="#035755"/>
<path d="M46.4586 39.2227H48.5235V41.2875H46.4586V39.2227Z" fill="#035755"/>
<path d="M50.5883 39.2227H52.6531V41.2875H50.5883V39.2227Z" fill="#035755"/>
<path d="M43.6453 8.67616L55.3245 20.3553L47.2975 28.3824L48.7558 29.8406L57.5184 21.078C57.9185 20.678 57.9185 20.0198 57.5184 19.6197L44.368 6.48228C43.9809 6.09512 43.2969 6.09512 42.9097 6.48228L34.1471 15.2449L35.6054 16.7032L43.6453 8.67616Z" fill="#035755"/>
<path d="M44.368 25.4658L45.8263 24.0075L47.2846 25.4658L45.8263 26.9241L44.368 25.4658Z" fill="#035755"/>
<path d="M47.2846 22.5492L48.7428 21.0909L50.2011 22.5492L48.7428 24.0075L47.2846 22.5492Z" fill="#035755"/>
<path d="M37.0637 18.1744L38.522 16.7161L39.9803 18.1744L38.522 19.6327L37.0637 18.1744Z" fill="#035755"/>
<path d="M39.9802 15.2449L41.4385 13.7866L42.8968 15.2449L41.4385 16.7032L39.9802 15.2449Z" fill="#035755"/>
<path d="M11.3565 39.2227H13.4214V41.2875H11.3565V39.2227Z" fill="#035755"/>
<path d="M15.4862 39.2227H17.551V41.2875H15.4862V39.2227Z" fill="#035755"/>
<path d="M11.3565 49.5468H13.4214V51.6117H11.3565V49.5468Z" fill="#035755"/>
<path d="M15.4862 49.5468H17.551V51.6117H15.4862V49.5468Z" fill="#035755"/>
</g>
<defs>
<clipPath id="clip0">
<rect width="64" height="64" fill="white"/>
</clipPath>
</defs>
</svg>
