<svg width="878" height="660" viewBox="0 0 878 660" fill="none" xmlns="http://www.w3.org/2000/svg">
<g clip-path="url(#clip0)">
<path opacity="0.5" fill-rule="evenodd" clip-rule="evenodd" d="M868.1 660H1.29998C-9.70002 512.2 136 419.1 215.2 368.5C225.5 361.9 234.6 356.1 242.2 350.9C275.3 328.3 299.8 278.8 325.9 226.3C374 129.4 427.3 21.9 549.2 51.6C656.4 77.8 817.4 189.3 878 356.2V633.3C875 642.1 871.7 651 868.1 660Z" fill="url(#paint0_linear)"/>
<path d="M312.7 567.8C311.3 571.2 336.2 564.8 340.7 563.2C340.8 563.1 341 562.9 341.1 562.5C335.5 564.1 318.5 568 312.7 567.8Z" fill="white"/>
<path d="M405.6 565.6C407.1 569 382 563 377.5 561.5C377.3 561.5 377.2 561.2 377.1 560.8C382.8 562.4 399.9 565.9 405.6 565.6Z" fill="white"/>
<path d="M675.9 582.9C672.4 582.9 668.9 582.8 665.4 582.4C651.9 581.1 638.3 580.4 624.9 578.6C594.2 574.3 563.4 574.1 532.4 574.1C520.1 574.1 507.8 574 495.5 574C477.6 574 459.7 574.3 441.8 575.5C413.9 577.4 386 577.7 358.1 577.7C353.9 577.7 349.7 577.7 345.5 577.7C345.2 577.7 345 577.7 344.7 577.7C329.2 577.7 313.9 578.7 298.4 579.4C282.9 580.1 267.8 581.3 252.4 581.3C251 581.3 249.6 581.3 248.2 581.3C232.8 581.1 209.3 576.4 198.4 564.5C191.9 557.4 192.8 540.4 199.3 533.6C202.2 530.6 206.8 528.3 210.5 526.9C221.2 522.9 232.1 522.9 243.3 522.8C243.4 522.8 243.6 522.8 243.7 522.8C251.4 522.8 259.4 524.4 266.8 526.7C273.5 528.7 280.4 529.5 287.3 530.7C292.9 531.7 298.9 532.2 304.8 532.2C308.7 532.2 312.5 532 316.2 531.6C326.1 530.5 336.2 530 346.1 529.1C358.5 528 370.6 525.7 382.9 524.4C389.1 523.8 395.1 522.2 401.3 521.5C417.6 519.6 434 519.2 450.4 519.1C451.7 519.1 453.1 519.1 454.4 519.1C462.2 519.1 470 519.2 477.8 519.2C484.1 519.2 490.5 519.2 496.8 519.2C518.5 519.2 540.1 519.4 561.7 521.5C568.4 522.1 575.1 521.8 581.7 523.3C588.3 524.8 595 526.2 601.8 526.5C607.6 526.7 613.4 526.8 619.3 526.8C629.7 526.8 640.1 526.6 650.4 526.5C651.4 526.5 652.9 526.5 654.7 526.5C677.9 526.5 758.5 527.6 752.7 550C750.5 558.6 737.5 569.8 730.3 573.4C721.1 578 711.1 580.6 701 581.6C692.6 582 684.3 582.9 675.9 582.9Z" fill="#EFEFF5"/>
<path d="M306 261.6L306.9 251.8L302.7 251.2L300.6 257.8L298.7 256.6L299 265.1L303.2 266.3L306 261.6Z" fill="#FDC09A"/>
<path d="M243.8 311L287.6 294.5L298.6 263.9L304.1 265.9L303.3 303.9L262.3 333.7L243.8 311Z" fill="#FDE590"/>
<path d="M477.8 345.6L477.3 350.5L468.3 352.5L463.8 348.1L464.5 342.4L469.4 342.7L469.7 341.5L471.4 340.7L477.8 345.6Z" fill="#E2D0B6"/>
<path d="M690 422L691.9 466.7L686.3 542.8L677.8 543.4L667.5 474.3L653.3 415.8L690 422Z" fill="#118C59"/>
<path d="M678.1 547L687.6 550.9L691.8 546L686.9 541.8L677.8 542.4L678.1 547Z" fill="#2A313F"/>
<path d="M630.1 406.1L628.2 439.9L633.7 540.5L642.2 541L654.9 475L666.1 402.6L630.1 406.1Z" fill="#118C59"/>
<path d="M642 544.5L632.6 548.7L628.2 543.9L633 539.5L642.2 540L642 544.5Z" fill="#2A313F"/>
<path d="M679.3 306.4L652.8 303.6C652.8 303.6 638.1 305.2 628.1 340.1C622.5 359.5 620.9 390.2 620.4 413.5C621 416.8 624.7 431.4 640 428.9C666.4 424.6 680.4 420.4 691.9 422.5C701.7 424.6 700.8 411.2 699.8 400.9L695.9 369.1L679.3 306.4Z" fill="#954B39"/>
<path d="M674.2 273.5C667.5 272 660.7 270.7 654 272C652.5 272.3 651 272.8 650.2 274.1C649.9 274.6 649.7 275.2 649.6 275.7C647.9 282 645.8 291.2 649.9 297C650.7 298.1 651.7 299 652.9 299.7C654.4 300.6 656.1 301.3 657.8 301.6C657.4 303.2 656.9 304.7 656.3 306.1C657.8 308.4 664.9 308.7 666.3 306.5C666.4 304.6 666.4 302.7 666.5 300.8C667.4 300.4 668.2 300 669 299.5C672 297.5 674 294.5 675.2 291.1C676.5 287.4 678.3 283.9 679.4 280.1C679.8 278.7 680.2 277.2 679.4 275.9C678.6 274.6 677 274.1 675.5 273.8C675.1 273.7 674.7 273.6 674.2 273.5Z" fill="#BF755D"/>
<path d="M652 277.1C655.3 275 660.2 274.1 663.3 274.3C672.7 275 676.1 281.9 676.6 290.5C679.2 287.2 684 283.1 684.3 278.9C684.5 275.4 684.1 270.7 682.1 267.8C680.3 265 675.7 263.5 672.9 261.9C670.3 260.4 667.7 258.9 665.1 257.3C664.6 257 664 256.7 663.4 256.6C662.7 256.5 661.9 256.7 661.2 256.8C655.1 258.4 648.9 260 642.8 261.6C641.6 261.9 640.3 262.3 639.8 263.5C639.5 264.2 639.7 265 639.8 265.7C640.5 268.9 641.8 272.1 642.2 275.4C642.6 277.3 643.7 286.9 647 285.8C648 284.2 648.1 282.2 648.9 280.5C649.6 279 650.7 278 652 277.1Z" fill="#002014"/>
<path d="M562.9 531.2C563.8 530.2 564.9 529.7 566 529.8C567.1 530 568.2 530.8 568.6 531.8C568.9 532.5 569 533.3 569.1 534.1C569.4 538.1 569.4 547.6 564.1 548.9C561.9 549.5 560 547.9 559.4 545.9C558.6 542.9 559.9 534.5 562.9 531.2Z" fill="#2A313F"/>
<path d="M561 471L561.3 495.4C561 506.2 562.7 517.1 562.3 527.9C562.2 530.4 561.6 533 562.2 535.5C562.8 537.9 564.8 538.3 566.8 537.1C569.5 535.5 569.1 531.6 569.5 528.9C570.7 521.2 572.2 513.6 573.5 506C574.1 502.2 572.8 497 573.1 493.2L577 472.8L561 471Z" fill="#BF755D"/>
<path d="M588.9 431.6L578.3 478.7L576 523.2L559.2 522.8L554.6 398.4L587.2 399L588.9 431.6Z" fill="#15AB69"/>
<path d="M538.9 530.3C539.8 529.4 540.9 528.9 542.1 529.1C543.2 529.3 544.2 530.2 544.7 531.2C545 531.9 545 532.7 545.1 533.5C545.3 537.5 544.8 547 539.5 548.1C537.2 548.5 535.5 546.8 535 544.8C534 541.8 535.7 533.5 538.9 530.3Z" fill="#2A313F"/>
<path d="M547.7 474.4L546.3 498.7C546.2 505.5 545.3 512.2 544.6 518.9C543.9 525.1 545 531.6 541.7 537.3C540.7 539.1 538.6 540.3 537.2 538.1C536.1 536.4 536.7 533.7 536.5 531.8C535.6 524.1 534.5 516.4 533.6 508.7C533.1 504.9 534.7 499.7 534.6 495.9L531.6 475.3L547.7 474.4Z" fill="#BF755D"/>
<path d="M526.5 428.8L525.1 474.5L532.3 520.7L549.4 521.2L548.6 471.2L557.7 429.7L560.7 402.5L533.6 399.3L526.5 428.8Z" fill="#15AB69"/>
<path d="M547.9 305.8L577.2 305.1L594.1 336.6L588.1 366.1L587 401.4L545.3 402L531.6 399.8L535.2 362L533.2 311.6L547.9 305.8Z" fill="#FDE590"/>
<path d="M543.3 326.6L532.8 358.9L517 364.6L473.9 352.9L479.7 344L517.6 345.2L533.2 313L543.3 326.6Z" fill="#FDE590"/>
<path d="M549.8 281.3C554.2 268.5 571.1 273.3 574.6 284.7C576.9 292.1 571.1 301.8 563.4 303.9C563.4 304.2 563.3 304.5 563.3 304.7C563.3 305.9 563.1 307.1 563 308.3C562.9 308.7 556.2 307.4 555.4 307.3C555.1 307.2 554.8 307.2 554.7 307C554.4 306.6 554.9 305.3 554.9 304.9C555 304.3 555 303.8 555.1 303.2C551.3 301.3 548.9 297.4 548.2 293.4C547.6 289.3 548.4 285.1 549.8 281.3Z" fill="#BF755D"/>
<path d="M560.8 269.7C561.7 270.6 562.1 271.9 562.3 273.1C562.5 273.8 562.6 274.6 562.4 275.3C561.8 278.2 558.9 278.1 556.7 279C553.9 280.2 551.6 282.3 550 284.7C547.6 288.5 548.7 293.5 549.7 297.7C550 299.2 550.7 301.4 549.6 302.7C548.4 304.1 545.7 303.8 544.3 303.1C543 302.5 542 301.3 540.5 301.1C539 300.8 537 301.5 536.3 300.1C536.1 299.7 536.1 299.3 535.8 298.9C535 297.7 532.9 299.1 531.8 298.3C531.1 297.8 531.1 296.7 531.3 295.8C531.5 294.9 532 294.1 531.8 293.2C531.7 292.4 531.1 291.8 530.8 291.2C530.1 289.8 530.4 288.1 531.4 286.9C533.2 284.8 536.8 285.2 538.8 283.2C539.8 282.2 540.2 280.6 540.6 279.2C541 277.8 541.4 276.3 542.5 275.3C543.9 274.1 545.8 274.3 547.2 272.9C548 272.1 548.5 271 549.4 270.3C550.6 269.3 552.8 268.6 554.3 268.1C556.5 267.5 559.1 268 560.8 269.7Z" fill="#002014"/>
<path d="M571.5 290.2C571.6 294.4 569.5 299 571.4 302.7C573.4 306.4 578.2 307.1 582.4 307.3C583.1 307.3 591.9 308.1 591.9 307.9C592.6 305 593.2 302 594.8 299.4C596.3 296.8 598.9 294.7 601.8 294.5C601 294.4 600.5 293.3 600.6 292.4C600.7 291.5 601.2 290.7 601.4 289.9C602 287.8 601.4 285.4 599.9 284C596.8 281.1 591.2 282.3 588.5 279C586.8 276.9 587 273.9 586.2 271.4C584.5 266.5 579.2 265.5 575.2 263.3C571 261 567 259.7 562.2 260.5C556.2 261.5 551.7 267.6 554 273.4C557 280.8 568.9 280.2 571.1 287.7C571.4 288.5 571.5 289.3 571.5 290.2Z" fill="#002014"/>
<path d="M568.5 305.6L559.4 318.4L555.2 318.1L548.1 305.1L568.5 305.6Z" fill="#FDE590"/>
<path d="M333.9 537.4L333.3 542.6L343 549.1L348.8 544.6L344.3 538.7L334.6 532.2L333.9 537.4Z" fill="#2A313F"/>
<path d="M333.6 535.7L341.1 469.7L332.1 395.8L334.1 380.1L374.3 378.6L375.7 404.1L369 469.8L343.6 539L333.6 535.7Z" fill="#118C59"/>
<path d="M403.7 386L403.8 452.5L390.4 538.3L380.8 538.2L375.5 458.9L363 379.5L403.7 386Z" fill="#118C59"/>
<path d="M380.8 542.3L391.2 547.6L396.4 542.4L391.3 537.1L380.8 537V542.3Z" fill="#2A313F"/>
<path d="M327.9 408.6C328 405.7 328.2 403.3 328.2 402.4C328.4 394.7 329.1 386.9 330.1 379.2C331 372.3 332.1 355.2 333.2 348.4C334.2 342.7 337.6 328.6 340 323.4C346.1 310.4 344.2 309.2 371 305.3C382.7 303.6 385.5 310.9 395.1 319.3C396 320.1 396 325.1 396.2 326.4C396.6 328.7 397 331 397.5 333.3C397.9 335.1 398.3 336.9 398.7 338.7C398.7 338.7 406.8 375.3 412.1 383.1C417.4 390.9 428.4 401.8 410 408.4C406.7 409.5 403.5 410.5 400.1 411C400.1 411 385 409.3 377.3 409.4C370.2 409.5 363 410.2 356 411.4C351.3 412.2 346.5 413.3 342.3 415.5C338.3 417.6 335.4 420.7 331.4 422.8C331 423 330.6 423.2 330.2 423.2C327.9 422.9 327.8 414.7 327.9 408.6Z" fill="#954B39"/>
<path d="M371.1 309C369.7 309.7 366.6 309.9 363.2 308.6C362.5 308.3 362.1 307.7 362.1 307C362.1 305 362.3 303 362.6 301C360.1 300.1 357.2 298.8 356.8 296.2C356.7 295.4 356.8 294.5 356.9 293.7C357.5 290.3 358.1 286.9 358.7 283.5C358.9 282.3 359.1 281.1 359.8 280.1C360.9 278.3 363.1 277.6 365.2 277.2C370.5 276.3 376.2 277.4 380.3 280.9C381.4 281.8 382.4 282.9 382.8 284.3C383.5 286.4 383 288.6 382.4 290.7C381.9 292.7 381.4 294.6 380.9 296.6C380.3 298.8 379.5 301.4 377.3 302.2C376.2 302.6 374.8 302.5 373.8 303.2C371.8 304.3 372 307.1 371.1 309Z" fill="#FDC09A"/>
<path d="M401.4 275.2C401.9 274.4 402.5 273.5 403.1 272.8C404.4 271.1 406.1 269.7 407.2 267.9C408.3 266.1 408.7 263.6 407.4 261.9C406.6 260.8 405.2 260.3 403.9 259.9C399.5 258.6 394.8 258.5 390.4 259.7C386.2 260.8 382.4 262.5 378.2 261C374.2 259.5 371.4 260.1 367.2 261.6C362.7 263.2 356.7 263.6 352.6 265.8C350.9 266.7 349.5 268.2 348.5 269.9C344.8 275.5 344.8 283.3 348.4 289C349.2 290.3 350.2 291.4 351.2 292.5C353.3 294.8 355.9 297.6 358.8 298.5C358.9 295.9 356.5 287.7 358.5 285.5C361.7 282.1 368.9 283.3 372.8 284.1C377.1 285 380.9 288.1 385.2 288.7C388.3 289.2 392.2 287.7 394.8 286.1C398 284 399.5 278.3 401.4 275.2Z" fill="#002014"/>
<path d="M348.8 310.4L332.1 325L313.5 364.1L337 392.1L341.1 376.5L348.8 310.4Z" fill="#954B39"/>
<path d="M240.3 422.7L202.7 411.2L214 475.2L212.8 531L212.7 531.4H212.8V531.5L220 531.8H220.3L233.7 481.4L239.3 428.2L240.3 422.7Z" fill="#15AB69"/>
<path d="M219.8 534.4L212.3 534.6L210.7 541.1H210.9L223.7 547.8L229.7 548.1L230 541.3L228.4 540.2L219.8 534.4Z" fill="#2A313F"/>
<path d="M269.2 422.2L264.5 533.2L257.2 533.9L246.5 474.8L230.5 416.2L269.2 422.2Z" fill="#15AB69"/>
<path d="M264.6 535.7L274.6 540.6L273.9 545.2L256.5 543.6L257.2 537L264.6 535.7Z" fill="#2A313F"/>
<path d="M193.5 442.6C192.2 423.9 207.2 363.9 207.2 363.9C208.8 358.3 210 352.5 210.6 346.8C211.1 342.7 221.9 296.2 221.1 296.2C229.5 296.6 245.6 294.1 252 299.9C252.2 300.1 252.4 300.2 252.5 300.4C257.5 305.8 260.3 316.9 262.8 323.7C266.1 332.6 268.6 341.8 270.5 351.2C272.1 359.4 273.2 367.6 274 375.9C274.7 383 274.5 390.1 274.9 397.1C275.4 404.9 278 413.2 279.9 420.7C281.9 428.3 284.3 435.7 287.6 442.8C279.4 446.7 270.1 448 261 448.3C251.9 448.6 242.8 448 233.7 448.4C226 448.7 218.2 449.8 210.7 448.5C204.7 447.5 199.1 445 193.5 442.6Z" fill="#FDE590"/>
<path d="M249.3 275.8C253.2 277.6 257.3 282.3 257.2 286.9C257.1 289.1 256 290.8 256 293.2C256 297.8 249.2 302.9 253.6 307.2C255.9 309.4 259.3 309.8 262.5 310C262.9 310 263.3 310.1 263.6 309.9C264.2 309.6 264.4 308.9 264.4 308.3C264.4 307.7 264.1 307.1 263.9 306.5C261.7 300.2 264.5 292.8 264.7 286.3C264.9 279.9 263.2 273 257.8 268.9C254.3 270.1 251.7 271.6 250.1 275L249.3 275.8Z" fill="#002014"/>
<path d="M247.7 303.3C252 302.6 255.7 299.3 257.6 295.4C259.5 291.4 260 286.9 259.9 282.5C259.6 267.9 241.4 267.4 234.5 278C228.3 287.3 235.1 305.3 247.7 303.3Z" fill="#FDC09A"/>
<path d="M744.4 482.5H600.6V389.6H744.4V482.5Z" fill="#FB4C47"/>
<path d="M725.3 358.2H672.5H619.7L596.7 385.2H672.5H748.2L725.3 358.2Z" fill="#FB4C47"/>
<path d="M748.2 395H596.7V385.2H748.2V395Z" fill="#AA6352"/>
<path d="M644.1 367.3L640.3 371.7H700.6L696.8 367.3H644.1Z" fill="#9B9B9B"/>
<path d="M600.6 395L744.4 408.4V395H600.6Z" fill="#FB2853" fill-opacity="0.92"/>
<path d="M610.9 418.4L732.6 414.6L729.9 418.4L734.7 423L730.8 429.7L734.7 433.5L731.8 436.1L737.6 445.6L729.2 452.5L733.3 456.8L612 460.1L614.6 455.5H610.9L614.8 445.1L608.5 440.2L612.2 435L610.7 432.3L613.7 427.7L608.5 421.4L610.9 418.4Z" fill="#F5F5F5"/>
<path d="M650.7 445.7C650.1 446.7 649.4 447.6 648.6 448.4C648 449 647.3 449.5 646.6 449.9C646.4 450 646.2 450 646 450.1C644.8 442.5 643.3 434.9 641.6 427.4C647.1 427.2 651.5 434 652 438.8C652.3 441.2 651.8 443.6 650.7 445.7ZM655.6 438.8C654.9 431.1 647.6 422 639.2 424.2C638.6 424.4 638.2 424.8 638.1 425.2C637.9 425.6 637.7 426 637.9 426.6C639.9 435.1 641.5 443.7 642.9 452.3C643.1 453.4 644 453.9 644.8 453.9C647.5 454.8 651.1 451.2 652.6 449.4C654.8 446.4 656 442.6 655.6 438.8Z" fill="#3A455A"/>
<path d="M667.4 449.3C659 447.2 660 425.4 668.6 429.8C671.4 431.2 671.9 436.1 672.1 438.9C672.2 442.1 672.5 450.5 667.4 449.3ZM668 425.8C665.4 425 662.6 425.6 660.6 428.2C657.5 432.1 657.5 438 658.6 442.6C659.7 447 662.4 452.3 667.5 452.9C674.8 453.7 675.6 445.9 675.7 440.5C675.7 437.5 675.2 434.3 674.1 431.5C672.9 428.8 670.6 426.6 668 425.8Z" fill="#3A455A"/>
<path d="M694 446.9C691.2 447 688.3 447.1 685.5 447.3L685.3 439.4C686.7 439.3 688.1 439.3 689.5 439.4C690.5 439.5 691.3 438.5 691.2 437.6C691.2 436.6 690.3 435.9 689.4 435.9C688 435.8 686.6 435.8 685.2 435.9L685 425.9C687.5 425.9 689.9 426 692.4 426.2C694.7 426.4 694.6 422.8 692.3 422.6C689.9 422.4 687.4 422.3 685 422.3C681.8 422.3 681.4 424 681.4 426.8C681.5 429.3 681.5 431.8 681.6 434.4C681.7 439.2 681.8 444 681.9 448.8C681.9 448.9 681.9 449 681.9 449C681.9 450.1 682.3 451.1 683.6 451.1C687.1 450.9 690.5 450.8 694 450.6C696.4 450.4 696.3 446.8 694 446.9Z" fill="#3A455A"/>
<path d="M621.2 377.4L621.4 382.3L627.5 389.4L631.1 385.7L628.2 379.3L629.7 376.9L627.3 374.3L621.2 377.4Z" fill="#BF755D"/>
<path d="M652.9 303.6L643.1 306.6L607.4 344L605.3 356.3L622.4 384.5L627 374.2L619.7 353.3L631.2 345.3L646.5 310.8L652.9 303.6Z" fill="#954B39"/>
<path d="M505.6 301.8C489.9 298.5 468.8 304.6 462.3 317.7C459.3 303.3 436 291.8 420 291.1C377.7 289.3 357.5 334.9 371.2 369.1C378.6 387.5 390.4 404.2 403.7 419.6C414.8 432.5 444.2 460.5 444.3 460.4C444.4 460.5 479.8 440.6 493.8 430.9C510.5 419.3 526.1 406 537.9 390.1C559.6 360.5 547 310.6 505.6 301.8Z" fill="#FB4C47"/>
<path d="M444 460.3C443.9 460.3 430.7 447.8 418.7 435.6H418.8C430.1 447.1 442.4 458.9 444 460.3Z" fill="#6A98A2"/>
<path d="M444 460.3C442.3 458.8 430.1 447.1 418.8 435.7C424.9 438 431.5 439.1 438.4 439.1C439.4 439.1 440.5 439.1 441.5 439C458.2 438.2 474.2 431.3 488.2 423C502.6 414.3 516.2 403.8 528.3 392.3C534.6 386.3 540.6 379.8 545.9 373C544.2 379.1 541.4 384.9 537.6 390C525.9 406 510.2 419.2 493.5 430.8C479.7 440.4 445.1 459.9 444 460.3Z" fill="#FC807E"/>
<path d="M557.3 406.9C557.9 402.1 554.5 397.8 549.7 397.2C544.9 396.6 540.5 400 539.9 404.8L529.6 441.4C527.2 450 521.3 457.2 513.3 461.4L484.2 476.5L505.6 451.4C506 451.1 506.3 450.7 506.6 450.3C507.3 449.3 507.8 448 508 446.7C508.5 442.3 505.4 438.3 501 437.7C499 437.5 497.1 438 495.5 439L466.6 459.7C454.1 468.6 445.9 482.4 444.1 497.7L442 514.7C440.6 526.2 448.8 536.7 460.3 538.1C464.7 538.6 469 537.7 472.7 535.8C473.7 535.3 474.7 534.7 475.6 534L535 495.9C542.9 490.8 548.2 482.5 549.3 473.1L557.3 406.9Z" fill="#FFC7AD"/>
<path d="M347.5 381.3C348.1 376.5 352.5 373.1 357.2 373.7C362 374.3 365.4 378.7 364.8 383.5L366.1 421.5C366.4 430.4 370.4 438.9 377.1 444.8L401.7 466.5L387 437C386.7 436.6 386.5 436.1 386.3 435.7C385.8 434.5 385.7 433.2 385.8 431.8C386.3 427.4 390.3 424.2 394.8 424.8C396.8 425 398.5 426 399.8 427.4L422.9 454.4C432.9 466.1 437.5 481.4 435.7 496.7L433.6 513.7C432.2 525.2 421.7 533.4 410.2 532C405.8 531.5 401.8 529.6 398.7 526.8C397.9 526 397.1 525.2 396.4 524.3L347.9 473C341.4 466.2 338.3 456.8 339.5 447.5L347.5 381.3Z" fill="#FFC7AD"/>
<path d="M554 407.4L558.3 409.8L556.4 418.9L550.6 421.2L545.7 418.2L548 413.9L547 413.1L546.9 411.2L554 407.4Z" fill="#BF755D"/>
<path d="M578.4 311.7L588.4 328.6L588 370.2L561.8 411.8L552.5 407L573.1 370.2L569.3 341.6L578.4 311.7Z" fill="#FDE590"/>
<path d="M677 309.1L702.2 300.1L718 262.6L726.7 263.2L716.4 304.3L707.2 314.7L676.2 330.3L677 309.1Z" fill="#2A292A"/>
<path d="M724.8 263.1L727.1 258.7L725.5 249.6L720.5 250.8L719.7 257.9L717.2 259.1L718 262.6L724.8 263.1Z" fill="#BF755D"/>
<path d="M671.6 308C671.6 280.1 694.2 257.4 722.1 257.3C750 257.3 772.7 279.9 772.8 307.8C772.8 335.7 750.2 358.4 722.3 358.5C694.3 358.5 671.6 335.9 671.6 308Z" fill="#BABCBE"/>
<path d="M679.2 308C679.2 284.3 698.3 265 722 265C745.7 265 765 284.1 765 307.8C765 331.5 745.9 350.8 722.2 350.8C698.5 350.9 679.3 331.7 679.2 308Z" fill="#CACBCC"/>
<path d="M744.5 271.2C748.8 277.9 751.3 285.8 751.3 294.3C751.3 318 732.2 337.3 708.5 337.3C700.3 337.3 692.6 335 686 331C693.6 342.9 707 350.8 722.2 350.7C745.9 350.7 765.1 331.4 765 307.7C765 292.3 756.8 278.8 744.5 271.2Z" fill="#9B9B9B"/>
<path d="M686.8 311.9C686.8 291 703.7 274 724.6 273.9C736.8 273.9 747.7 279.7 754.7 288.6C748.1 277.3 735.9 269.6 721.8 269.7C700.9 269.7 683.9 286.7 684 307.7C684 316.4 687 324.4 691.9 330.8C688.6 325.2 686.8 318.8 686.8 311.9Z" fill="#F5F5F5"/>
<path d="M725.6 280.2V285.7C727.8 286 729.6 286.8 731 287.9C732.4 289 733.7 290.7 735 292.9L729.6 296C728 293 725.8 291.5 723.2 291.5C721.6 291.5 720.2 292 719.1 293C718 294 717.5 295.2 717.5 296.6C717.5 297.9 717.9 299 718.8 299.9C719.7 300.8 721.4 301.8 724 302.9C726.3 303.9 728.1 304.9 729.6 305.8C731.1 306.7 732.2 307.6 732.9 308.4C735 310.7 736.1 313.4 736.1 316.6C736.1 319.8 735.2 322.6 733.3 325C731.4 327.4 728.9 329 725.8 329.9V335.7H720.9V330.1C717.3 329.5 714.5 328.3 712.6 326.3C710.7 324.4 709.3 321.4 708.3 317.4L714.4 316.1C715.2 318.9 716.3 320.9 717.5 322.1C718.8 323.3 720.5 323.8 722.6 323.8C724.6 323.8 726.4 323.1 727.7 321.8C729.1 320.5 729.7 318.8 729.7 316.7C729.7 314.9 729.1 313.4 728 312.3C727.4 311.8 726.6 311.2 725.4 310.5C724.3 309.8 722.8 309.1 721.1 308.3C717.5 306.7 715.1 305.2 714 303.8C712.2 301.8 711.3 299.4 711.3 296.5C711.3 295.2 711.5 293.9 711.9 292.8C712.3 291.6 712.9 290.6 713.8 289.7C714.6 288.8 715.6 287.9 716.8 287.3C718 286.6 719.3 286.1 720.8 285.7V280.2H725.6Z" fill="#A7A7A8"/>
<path d="M329.8 403.4C327.2 397.6 322.6 393.3 317 391.1C317 390.3 317 389.5 317 388.6C317 380.1 315.3 371.9 312.1 364.2C308.9 356.7 304.4 350 298.7 344.3C292.9 338.5 286.2 334 278.8 330.9C271.1 327.6 262.8 326 254.4 326C245.9 326 237.7 327.7 230 330.9C222.5 334.1 215.8 338.6 210.1 344.3C204.3 350.1 199.8 356.8 196.7 364.2C193.4 371.9 191.8 380.2 191.8 388.6C191.8 397.1 193.5 405.3 196.7 413C199.9 420.5 204.4 427.2 210.1 432.9C215.9 438.7 222.6 443.2 230 446.3C237.7 449.6 246 451.2 254.4 451.2C262.9 451.2 271.1 449.5 278.8 446.3C279.1 446.2 279.5 446 279.8 445.9L282.6 448.1C285.4 450.3 288.1 452.4 289.5 453.4C290.5 454.1 291.3 454.7 291.9 455.2C292.3 455.5 292.6 455.8 293 456C293.3 456.2 294.2 456.8 295.4 456.8C295.7 456.8 295.9 456.8 296.1 456.8H296.4L296.7 456.6C297.4 456.3 298.2 455.8 299.8 454.6C300.2 454.3 300.7 453.9 301.4 453.4L302 452.9C302.7 452.4 303.5 451.8 304.3 451.2C307.5 448.8 311.9 445.4 314.4 443.2C321 437.3 325.8 431.6 329.1 425.7C332.9 419.1 333.1 410.7 329.8 403.4Z" fill="white"/>
<path d="M254.8 335.9C240.7 335.9 227.5 341.4 217.5 351.3C207.5 361.3 202.1 374.5 202.1 388.6C202.1 402.7 207.6 415.9 217.5 425.9C227.5 435.9 240.7 441.3 254.8 441.3C268.9 441.3 282.1 435.8 292.1 425.9C302.1 415.9 307.5 402.7 307.5 388.6C307.5 374.5 302 361.3 292.1 351.3C282.1 341.4 268.9 335.9 254.8 335.9ZM254.8 447.2C246.9 447.2 239.2 445.7 232 442.6C225 439.6 218.8 435.4 213.4 430C208 424.6 203.8 418.4 200.8 411.4C197.7 404.2 196.2 396.5 196.2 388.6C196.2 380.7 197.7 373 200.8 365.8C203.8 358.8 208 352.6 213.4 347.2C218.8 341.8 225 337.6 232 334.6C239.2 331.5 246.9 330 254.8 330C262.7 330 270.4 331.5 277.6 334.6C284.6 337.6 290.8 341.8 296.2 347.2C301.6 352.6 305.8 358.8 308.8 365.8C311.9 373 313.4 380.7 313.4 388.6C313.4 396.5 311.8 404.2 308.8 411.4C305.8 418.4 301.6 424.6 296.2 430C290.8 435.4 284.6 439.6 277.6 442.6C270.4 445.7 262.7 447.2 254.8 447.2Z" fill="#035755"/>
<path d="M257.7 444.3H251.9V333H257.7V444.3Z" fill="#035755"/>
<path d="M308.1 373.4H202.4V367.5H308.1V373.4Z" fill="#035755"/>
<path d="M308.2 407.2H200.7V401.3H308.2V407.2Z" fill="#035755"/>
<path d="M252.2 446.6C251.9 446.4 244.1 440.9 236.3 430.9C231.7 425 228 418.7 225.4 412.2C222.1 404 220.4 395.5 220.4 386.9C220.4 378.3 222.1 369.9 225.4 362.1C228 355.9 231.7 350 236.4 344.6C244.3 335.4 252.1 330.8 252.4 330.6L255.3 335.7C255.2 335.7 247.9 340 240.7 348.5C236.5 353.4 233.2 358.8 230.8 364.5C227.8 371.5 226.3 379.1 226.3 386.9C226.3 394.8 227.8 402.5 230.9 410C233.3 416 236.7 421.8 241 427.3C248.3 436.7 255.5 441.8 255.6 441.8L252.2 446.6Z" fill="#035755"/>
<path d="M258.2 446.6L254.8 441.8C254.9 441.7 262.3 436.5 269.5 427.1C273.7 421.6 277.1 415.8 279.5 409.8C282.5 402.4 284 394.6 284 386.8C284 378.9 282.5 371.4 279.5 364.3C277.1 358.6 273.7 353.2 269.5 348.3C262.3 339.9 255.1 335.7 255 335.6L257.9 330.5C258.2 330.7 266.1 335.3 273.9 344.5C278.5 349.9 282.2 355.8 284.9 362C288.2 369.8 289.9 378.2 289.9 386.8C289.9 395.4 288.2 404 284.9 412.1C282.3 418.6 278.6 424.9 274 430.8C266.3 440.9 258.5 446.4 258.2 446.6Z" fill="#035755"/>
<path d="M310.7 393.7C305 393.2 297.8 396.3 296 401.2C294.3 396.2 285.5 393.1 279.8 393.6C264.7 394.8 259.5 411.9 265.8 423.4C269.2 429.6 274.1 435 279.5 439.9C284 444 295.6 452.7 295.7 452.6C295.7 452.6 307.4 444.1 312 440C317.4 435.2 322.4 429.8 325.9 423.6C332.4 412.2 325.8 395 310.7 393.7Z" fill="#FB4C47"/>
<path d="M295.7 452.7C295 452.2 290.2 448.6 285.7 445.1C287.2 445.4 288.7 445.6 290.3 445.6C291.5 445.6 292.7 445.5 293.9 445.3C299.8 444.3 305.2 441.2 309.8 437.6C314.5 433.9 318.9 429.6 322.7 425C324.7 422.6 326.5 420 328.1 417.4C327.7 419.6 327 421.8 325.9 423.8C322.4 430 317.4 435.4 312 440.2C307.5 444 296.1 452.4 295.7 452.7Z" fill="#FC807E"/>
<path d="M195.7 403.7C196.2 405.9 200 410.4 202.4 410.7C207.9 411.5 203.6 405.6 202.6 403.2C203.5 403.1 204.5 403 205.3 402.7C206.1 402.4 200.9 396.4 199.8 396C197.3 395.2 196.3 396.5 194.2 397.7C194.7 399.8 195.2 401.8 195.7 403.7Z" fill="#FDC09A"/>
<path d="M220.4 301.3L172.6 361.9L193.4 400.4L203.1 397.8L192.7 365.3L205.9 348.4L232.1 328L220.4 301.3Z" fill="#FDE590"/>
<path d="M225.9 305.7C228.1 305 230.3 304.2 232 302.3C234.7 299.2 235.4 293.4 236.6 289.5C237.9 285.4 239.4 281 243 278.8C245.3 277.3 247.8 277.3 250.4 277.7C252.2 278 252.2 278.7 253.8 278C255.1 277.5 256.5 275.4 256.9 274.2C257.7 272.1 257.2 269.7 256.1 267.7C254.3 264.7 251.9 263 248.6 262.4C236.9 260.2 227 265.7 221.8 276.5C219.3 281.7 219.4 288 216.9 293.1C215.3 296.2 212.9 298 211.4 301.4C207.7 310.1 200.8 320.8 199.6 330.2C199.6 330.5 199.5 330.9 199.8 331.2C200.2 331.8 201.1 331.3 201.7 330.9C204.9 328.2 208.1 325.6 211.3 322.9C212.6 321.9 213.8 320.8 214.8 319.4C217.1 316 217 311.2 220.1 308.6C221.7 307 223.8 306.4 225.9 305.7Z" fill="#002014"/>
<path d="M345 393.5L353.5 398.4L355.8 394.8L350.7 390.2L352.5 389L344.7 385.7L341.8 389.1L345 393.5Z" fill="#FDC09A"/>
</g>
<defs>
<linearGradient id="paint0_linear" x1="242.456" y1="280.543" x2="740.956" y2="779.044" gradientUnits="userSpaceOnUse">
<stop stop-color="white"/>
<stop offset="1" stop-color="white" stop-opacity="0"/>
</linearGradient>
<clipPath id="clip0">
<rect width="878" height="660" fill="white"/>
</clipPath>
</defs>
</svg>
