<svg width="64" height="64" viewBox="0 0 64 64" fill="none" xmlns="http://www.w3.org/2000/svg">
<path d="M27.7338 57.5238C27.7338 58.1112 28.2087 58.5861 28.796 58.5861H33.3949C33.9573 58.5861 34.4197 58.1612 34.4571 57.5988L34.882 52.2376C34.932 51.6502 34.4946 51.1379 33.9073 51.0879C33.3199 51.0379 32.8075 51.4753 32.7576 52.0626L32.4076 56.4366H28.796C28.2087 56.4616 27.7338 56.9365 27.7338 57.5238Z" fill="#035755"/>
<path d="M0.202904 46.689C-0.759363 50.888 1.79002 55.0994 5.96401 56.1867L6.17646 58.9235C6.36392 61.1355 8.20097 62.8476 10.4254 62.8476H34.3822C36.6066 62.8351 38.4562 61.1355 38.6311 58.9235L41.5179 22.3198H42.6677C43.8424 22.3198 44.8046 21.3701 44.8046 20.1829C44.8046 18.7707 44.2423 17.4085 43.2425 16.4088C42.2428 15.409 40.8806 14.8466 39.4684 14.8466H5.33916C2.38988 14.8716 0.00295268 17.2586 0.00295268 20.1954C0.00295268 21.3701 0.952723 22.3323 2.13994 22.3323H3.28966L3.92701 30.3554L0.202904 46.689ZM3.42713 52.1252C2.31489 50.7255 1.89 48.9009 2.2899 47.1638L4.48937 37.5162C5.15171 46.0516 5.33916 48.2386 5.38915 48.826C5.38915 48.9009 5.40165 48.9759 5.41415 49.0634C5.50163 49.4508 5.67658 49.8257 5.93902 50.1256C6.4389 50.763 7.20121 51.1254 8.01352 51.1254H12.0625C15.2243 51.1254 17.9861 48.9884 18.7859 45.9266L23.4473 27.8935C24.2346 28.4309 25.1844 28.7183 26.1341 28.7183C26.2716 28.7183 26.4091 28.6933 26.5465 28.6808L21.8727 46.739C20.7105 51.2129 16.6739 54.3246 12.0625 54.3246H8.00102C6.21395 54.3371 4.52686 53.5248 3.42713 52.1252ZM27.9837 22.0074L27.9962 22.0199C28.771 22.7822 29.0084 23.932 28.6085 24.9317C28.1961 25.9315 27.2214 26.5938 26.1341 26.5938C25.0469 26.5938 24.0721 25.9315 23.6597 24.9317C23.2473 23.932 23.4973 22.7697 24.2721 22.0199L24.2846 22.0074C25.3218 21.0077 26.9464 21.0077 27.9837 22.0074ZM36.5066 58.7611C36.4192 59.8733 35.4944 60.7231 34.3822 60.7231H10.4254C9.31321 60.7231 8.38843 59.8733 8.30095 58.7611L8.1135 56.4616H12.05C17.6362 56.4616 22.51 52.6875 23.9222 47.2763L28.9835 27.756C30.6955 26.5188 31.3704 24.3069 30.6331 22.3198H39.3684L36.5066 58.7611ZM5.33916 16.9961H39.4684C40.3182 16.9961 41.1305 17.3335 41.7304 17.9334C42.3302 18.5333 42.6677 19.3456 42.6677 20.1954H29.1209C27.3838 18.7707 24.8969 18.7707 23.1599 20.1954H2.13994C2.13994 18.4333 3.56459 16.9961 5.33916 16.9961ZM21.6227 22.3323C21.1853 23.4821 21.2353 24.7693 21.7477 25.8815L16.6989 45.4018C16.1491 47.5138 14.237 49.0009 12.05 48.9884H8.00102C7.83856 48.9884 7.6761 48.9134 7.57612 48.776C7.53863 48.7385 7.51364 48.6885 7.50114 48.6385C7.41366 47.6762 6.4389 35.1792 6.06399 30.3304L5.42664 22.3198H21.6227V22.3323Z" fill="#035755"/>
<path d="M51.1906 56.4616H49.0536V54.3246C49.0536 53.7373 48.5787 53.2624 47.9914 53.2624C47.404 53.2624 46.9291 53.7373 46.9291 54.3246V56.4616C46.9291 57.6363 47.8789 58.5986 49.0661 58.5986H51.2031C51.7905 58.5986 52.2654 58.1237 52.2654 57.5364C52.2654 56.949 51.778 56.4616 51.1906 56.4616Z" fill="#035755"/>
<path d="M59.726 1H50.1283C48.6162 1 47.2165 1.8123 46.4542 3.13698H44.7921C43.03 3.14948 41.6054 4.57414 41.5929 6.33621C41.5929 8.09829 43.03 9.53544 44.7921 9.53544H46.4542C46.8291 10.1728 47.354 10.6977 47.9914 11.0726V16.5587L46.1668 18.3833C45.8919 18.6457 45.7794 19.0456 45.8794 19.4206C45.9793 19.7955 46.2668 20.0829 46.6417 20.1829C47.0166 20.2828 47.4165 20.1704 47.6789 19.8954L49.5035 18.0709C49.9034 17.671 50.1283 17.1336 50.1283 16.5587V11.6724H52.2653V19.3081C52.2653 20.3578 51.8779 21.3826 51.1656 22.1574L44.3047 29.7806C43.2425 30.9553 42.6551 32.4799 42.6676 34.067V56.4616C42.6676 59.9983 45.5294 62.8601 49.0661 62.8601H57.6015C61.1382 62.8601 64 59.9983 64 56.4616V5.27397C63.9875 2.91204 62.0755 1 59.726 1ZM44.7921 7.39846C44.2048 7.39846 43.7299 6.92357 43.7299 6.33621C43.7299 6.04878 43.8424 5.77385 44.0548 5.5739C44.2548 5.37394 44.5172 5.26147 44.7921 5.26147H45.8544V7.39846H44.7921ZM47.9914 7.39846V5.27397C47.9914 4.09925 48.9411 3.13698 50.1283 3.13698H59.726C60.9007 3.13698 61.863 4.08676 61.863 5.27397V9.53544H50.1283C48.9411 9.53544 47.9914 8.58567 47.9914 7.39846ZM61.8505 11.6724V15.9339H54.3898V11.6724H61.8505ZM45.8919 31.2052L52.7527 23.582C53.8149 22.4073 54.4023 20.8827 54.3898 19.3081V18.0709H61.8505V35.1293H44.7921V34.067C44.7921 33.0048 45.1795 31.9925 45.8919 31.2052ZM61.8505 48.9884H44.7921V37.2538H61.8505V48.9884ZM57.589 60.7231H49.0536C46.6917 60.7231 44.7921 58.811 44.7921 56.4616V51.1254H61.8505V56.4616C61.8505 58.811 59.951 60.7231 57.589 60.7231Z" fill="#035755"/>
</svg>
