<svg width="64" height="64" viewBox="0 0 64 64" fill="none" xmlns="http://www.w3.org/2000/svg">
<path d="M17.8125 35.6125C22.4 37.05 27.1875 37.775 32 37.775C36.8125 37.775 41.6 37.0375 46.1875 35.6125C46.55 35.5 46.825 35.2 46.9125 34.825C47 34.45 46.875 34.0625 46.6 33.8125C46.325 33.55 45.925 33.4625 45.5625 33.575C36.7375 36.3375 27.2875 36.3375 18.4625 33.575C17.9 33.4 17.3 33.7125 17.125 34.275C16.9375 34.8375 17.2625 35.4375 17.8125 35.6125Z" fill="#035755"/>
<path d="M17.975 29.25C22.6125 29.9625 27.3125 30.325 32 30.325C36.7 30.325 41.3875 29.975 46.025 29.25C46.4 29.2 46.725 28.9375 46.8625 28.5875C47 28.225 46.9375 27.825 46.7 27.525C46.4625 27.225 46.075 27.0875 45.7 27.15C36.6125 28.55 27.375 28.55 18.3 27.15C17.725 27.0625 17.1875 27.4625 17.1 28.0375C17.0125 28.6125 17.3875 29.15 17.975 29.25Z" fill="#035755"/>
<path d="M45.4125 41.1C36.95 45.2375 27.0625 45.2375 18.6 41.1C18.25 40.9 17.825 40.925 17.5 41.1375C17.1625 41.35 16.9875 41.7375 17.025 42.1375C17.0625 42.5375 17.325 42.875 17.6875 43.025C26.725 47.4375 37.3 47.4375 46.3375 43.025C46.7125 42.875 46.9625 42.5375 47 42.1375C47.0375 41.7375 46.85 41.3625 46.525 41.1375C46.175 40.925 45.75 40.9125 45.4125 41.1Z" fill="#035755"/>
<path d="M59.7375 19.6625H54.2125C53.7625 18.3875 52.5625 17.5375 51.2125 17.525H49.6C45.6375 17.475 41.9125 15.6375 39.45 12.5375C37.625 10.3 34.8875 9 32 9C29.1125 9 26.375 10.3 24.5625 12.5375C22.1 15.65 18.375 17.475 14.4125 17.525H12.8C11.45 17.525 10.25 18.3875 9.8 19.6625H4.2625C1.9125 19.6625 0 21.575 0 23.925V29.2625C0 34.875 5.025 40.025 11.1125 40.875C14.125 49.1 21.5375 54.9 30.2375 55.8375C31.4125 55.975 32.5875 55.975 33.7625 55.8375C42.4625 54.9 49.875 49.1 52.8875 40.875C58.975 40.0375 64 34.875 64 29.2625V23.925C64 21.575 62.0875 19.6625 59.7375 19.6625ZM12.8 19.6625H14.4125C19.0125 19.6125 23.35 17.4875 26.2125 13.875C27.625 12.1375 29.75 11.125 32 11.125C34.25 11.125 36.375 12.1375 37.7875 13.875C40.65 17.475 44.9875 19.6 49.5875 19.6625H51.2C51.7875 19.6625 52.2625 20.1375 52.2625 20.725V21.7875H49.0625H49.0375C43.9625 21.65 39.225 19.2375 36.125 15.225C35.1125 13.9875 33.6 13.2625 31.9875 13.2625C30.3875 13.2625 28.8625 13.9875 27.8625 15.2375C24.7625 19.25 20.025 21.6625 14.95 21.7875H14.925L11.725 21.8V20.7375C11.7375 20.1375 12.2125 19.6625 12.8 19.6625ZM2.1375 29.2625V23.925C2.1375 22.75 3.0875 21.7875 4.275 21.7875H9.6125V32.4625C9.6125 34.525 9.8875 36.575 10.4125 38.5625C6.1625 37.55 2.1375 33.925 2.1375 29.2625ZM33.5375 53.7125C32.5125 53.825 31.4875 53.825 30.4625 53.7125C22.3625 52.825 15.5125 47.3 12.925 39.575V39.5625C12.1375 37.275 11.7375 34.8875 11.725 32.4625V23.925H14.925C20.65 23.8125 26.0125 21.1125 29.5125 16.5875C30.1125 15.8375 31.025 15.4 31.9875 15.4C32.95 15.4 33.8625 15.825 34.4625 16.575C37.9625 21.0875 43.3125 23.7875 49.025 23.925H49.05H52.25V32.4625C52.25 34.875 51.85 37.275 51.0625 39.55V39.5625C48.5 47.3 41.65 52.825 33.5375 53.7125ZM61.8625 29.2625C61.8625 33.925 57.8375 37.55 53.6 38.575C54.125 36.5875 54.3875 34.525 54.4 32.4625V21.8H59.7375C60.9125 21.8 61.875 22.75 61.875 23.9375V29.2625H61.8625Z" fill="#035755"/>
</svg>
